<?xml version="1.0"?>
<svg xmlns="http://www.w3.org/2000/svg" id="Outline" viewBox="0 0 64 64" width="512" height="512"><path d="M55.84619,17.22852l-3.32056-1.107-.34545-.86371A1.99168,1.99168,0,0,0,50.32275,14h-.54187l-.43176-1.72852A2.99684,2.99684,0,0,0,46.43848,10H46V7.81573a3.00011,3.00011,0,1,0-2-.00006V10h-.43848a2.99664,2.99664,0,0,0-2.91064,2.27246L40.21918,14h-.54193a1.99053,1.99053,0,0,0-1.85694,1.25781l-.34552.86359-3.321,1.10712A8.98705,8.98705,0,0,0,28,25.76562V27a3.00328,3.00328,0,0,0,3,3h3v1.57812a8.97329,8.97329,0,0,0,1.51221,4.99317l.23047.34473a6.97352,6.97352,0,0,1,.58886,6.68945l-3.93506,8.99414,1.832.80078,3.935-8.99414a8.964,8.964,0,0,0-.75732-8.60059l-.23047-.34472A6.97712,6.97712,0,0,1,36,31.57812V29.23633a20.9226,20.9226,0,0,1,1.50146-7.79883L39.67725,16h10.646l2.17481,5.4375A20.91335,20.91335,0,0,1,54,29.23633v2.34179A6.975,6.975,0,0,1,52.82471,35.46l-.23145.34668a8.96312,8.96312,0,0,0-.75683,8.59961l4.40918,10.07813A8.95466,8.95466,0,0,1,57,58.0918V62h2V58.0918a10.9259,10.9259,0,0,0-.92236-4.40821L53.66846,43.60547a6.9726,6.9726,0,0,1,.58838-6.68848l.23144-.34668A8.97119,8.97119,0,0,0,56,31.57812V30h3a3.00328,3.00328,0,0,0,3-3V25.76562A8.98705,8.98705,0,0,0,55.84619,17.22852ZM45,4a1,1,0,1,1-1,1A1.001,1.001,0,0,1,45,4ZM35.64453,20.69531A22.87954,22.87954,0,0,0,34.05841,28H31a1.001,1.001,0,0,1-1-1V25.76562A6.99147,6.99147,0,0,1,34.78662,19.125l1.715-.57178Zm6.94678-7.9375A.99867.99867,0,0,1,43.56152,12h2.877a.99887.99887,0,0,1,.97021.75684L47.71936,14h-5.4386ZM60,27a1.001,1.001,0,0,1-1,1H55.94159A22.86889,22.86889,0,0,0,54.355,20.69531l-.85675-2.14209,1.71515.57178A6.99147,6.99147,0,0,1,60,25.76562Z"/><path d="M28,54H16V45h4.10107A5.01455,5.01455,0,0,0,24,48.89893V52h2V48.89893A5.00838,5.00838,0,0,0,30,44V35a3.00328,3.00328,0,0,0-3-3H23a3.00328,3.00328,0,0,0-3,3H14V31H12v4H8V31H6v4H5a3.00328,3.00328,0,0,0-3,3v4a3.00328,3.00328,0,0,0,3,3v9a3.00328,3.00328,0,0,0-3,3v2a3.00328,3.00328,0,0,0,3,3H28a3.00328,3.00328,0,0,0,3-3V57A3.00328,3.00328,0,0,0,28,54ZM23,34h4a1.001,1.001,0,0,1,1,1v9a3,3,0,0,1-6,0V35A1.001,1.001,0,0,1,23,34ZM4,42V38a1.001,1.001,0,0,1,1-1H20v6H5A1.001,1.001,0,0,1,4,42Zm3,3h7v9H7ZM29,59a1.001,1.001,0,0,1-1,1H5a1.001,1.001,0,0,1-1-1V57a1.001,1.001,0,0,1,1-1H28a1.001,1.001,0,0,1,1,1Z"/></svg>
