<svg height="496pt" viewBox="0 -40 496 496" width="496pt" xmlns="http://www.w3.org/2000/svg"><path d="m216.0625 174.902344c.34375-17.125 8.609375-33.40625 22.335938-43.710938l9.601562-7.191406v-44h-48v8c0 17.671875-14.328125 32-32 32s-32-14.328125-32-32v-8h-48v44l9.59375 7.191406c13.734375 10.304688 22 26.585938 22.34375 43.710938l-32.847656 98.539062 2.511718 3.359375c1.078126 1.4375 26.992188 35.199219 78.398438 35.199219s77.320312-33.769531 78.398438-35.199219l2.511718-3.351562zm0 0" fill="#f0bc5e"/><path d="m296 264h16v32h-16zm0 0"/><path d="m360 264h16v32h-16zm0 0"/><path d="m328 264h16v32h-16zm0 0"/><path d="m476.433594 368.449219-36.433594-51.015625v-269.433594h9.472656c3.3125 9.289062 12.113282 16 22.527344 16 13.230469 0 24-10.769531 24-24s-10.769531-24-24-24c-10.414062 0-19.214844 6.710938-22.527344 16h-105.472656c0-17.648438-14.351562-32-32-32s-32 14.351562-32 32h-104c0-17.648438-14.351562-32-32-32s-32 14.351562-32 32h-65.472656c-3.3125-9.289062-12.113282-16-22.527344-16-13.230469 0-24 10.769531-24 24s10.769531 24 24 24c10.414062 0 19.214844-6.710938 22.527344-16h9.472656v269.433594l-36.433594 51.015625c-11.117187 2.085937-19.566406 11.839843-19.566406 23.550781v24h496v-24c0-11.710938-8.449219-21.464844-19.566406-23.550781zm-4.433594-336.449219c4.414062 0 8 3.59375 8 8s-3.585938 8-8 8-8-3.59375-8-8 3.585938-8 8-8zm-448 16c-4.414062 0-8-3.59375-8-8s3.585938-8 8-8 8 3.59375 8 8-3.585938 8-8 8zm288-32c8.824219 0 16 7.175781 16 16h-32c0-8.824219 7.175781-16 16-16zm-144 73.871094c4.246094 3.808594 9.855469 6.128906 16 6.128906h6.632812c-3.304687 9.3125-12.199218 16-22.632812 16s-19.328125-6.6875-22.632812-16h6.632812c6.144531 0 11.753906-2.320312 16-6.128906zm-24-73.871094c8.824219 0 16 7.175781 16 16h-32c0-8.824219 7.175781-16 16-16zm16 32v24c0 4.40625-3.585938 8-8 8h-24v8c0 22.054688 17.945312 40 40 40s40-17.945312 40-40v-8h-24c-4.414062 0-8-3.59375-8-8v-24h152v20.472656c-8.496094 7.421875-19.230469 11.527344-30.625 11.527344h-33.375v64h40v-16h-24v-32h17.375c14.183594 0 27.648438-4.679688 38.625-13.320312 10.976562 8.640624 24.441406 13.320312 38.625 13.320312h17.375v32h-24v16h40v-64h-33.375c-11.394531 0-22.136719-4.105469-30.625-11.527344v-20.472656h80v269.433594l-36.433594 51.015625c-11.117187 2.085937-19.566406 11.839843-19.566406 23.550781v8h-240v-8c0-11.710938-8.449219-21.464844-19.566406-23.550781l-36.433594-51.015625v-269.433594zm240 352h-16v-8c0-4.40625 3.585938-8 8-8s8 3.59375 8 8zm-296-16c4.414062 0 8 3.59375 8 8v8h-16v-8c0-4.40625 3.585938-8 8-8zm-72 16h-16v-8c0-4.40625 3.585938-8 8-8s8 3.59375 8 8zm4.832031-28.207031 27.167969-38.023438 27.167969 38.023438c-6.695313 4.261719-11.167969 11.703125-11.167969 20.207031v8h-32v-8c0-8.503906-4.472656-15.945312-11.167969-20.207031zm411.167969 20.207031v8h-32v-8c0-8.503906-4.472656-15.945312-11.167969-20.207031l27.167969-38.023438 27.167969 38.023438c-6.695313 4.261719-11.167969 11.703125-11.167969 20.207031zm32 8h-16v-8c0-4.40625 3.585938-8 8-8s8 3.59375 8 8zm0 0"/><path d="m376 264h-80v-136c0-8.824219 7.175781-16 16-16h48c8.824219 0 16 7.175781 16 16zm0 0" fill="#f0bc5e"/></svg>