<?xml version="1.0"?>
<svg xmlns="http://www.w3.org/2000/svg" viewBox="0 0 64 64" width="512" height="512"><g id="Outline"><g><path d="M53.5,28.019A3,3,0,1,0,52.1,26.2,2.985,2.985,0,0,0,53.5,28.019Zm.633-3.1a.991.991,0,0,1,.608-.466A1.009,1.009,0,0,1,55,24.42a1,1,0,1,1-.868.5Z"/><path d="M45.142,10.491a3,3,0,0,0-5.2-3h0a3,3,0,0,0,2.593,4.5,3.019,3.019,0,0,0,.781-.1A2.98,2.98,0,0,0,45.142,10.491Zm-1.732-1a.993.993,0,0,1-.607.467,1,1,0,0,1-.76-.1,1,1,0,0,1-.365-1.366,1,1,0,1,1,1.732,1Z"/><path d="M31.2,37.7l4.757-1.75a1,1,0,0,0,.452-.335l5.93-7.833,5.715-1.532a6.82,6.82,0,0,0,.188.985,7,7,0,1,0,4.95-8.573l-8.694,2.33-.517-1.932a1,1,0,0,0-1.343-.668l-2.678,1.089,2.361-4.091a1,1,0,0,0-.684-1.484,4.995,4.995,0,0,1-3.419-7.411,5,5,0,1,1,8.661,5l-2.526,4.376a1,1,0,0,0,1.733,1l2.525-4.376a7.019,7.019,0,1,0-8.659,3L36.937,20.7,27.7,24.461a1,1,0,0,0-.441.351l-4.5,6.382a1,1,0,0,0,.817,1.577.962.962,0,0,0,.259-.035l15.357-4.115-4.2,5.55-3.17,1.166a10.837,10.837,0,0,0,.117-2.19,1,1,0,0,0-2,.116,8.868,8.868,0,0,1-.844,4.312,11.256,11.256,0,0,0-.551,8.784L33.566,60H32.487a22.411,22.411,0,0,1-4.5-10.164,1,1,0,1,0-1.972.328,24.375,24.375,0,0,0,4,9.836H27.487a22.411,22.411,0,0,1-4.5-10.164,1,1,0,1,0-1.972.328,24.385,24.385,0,0,0,4,9.836H22.484A16.169,16.169,0,0,1,19,50a1,1,0,0,0-2,0,18.135,18.135,0,0,0,2.807,9.643A7.009,7.009,0,0,1,15,53V44.334a10.94,10.94,0,0,0-1.149-4.869l-.866-1.732a8.9,8.9,0,0,1-.158-7.631,10.9,10.9,0,0,0,.523-7.338A6.472,6.472,0,0,0,15,23a6,6,0,0,0,5.624-3.633,1,1,0,0,0-1.86-.734A3.992,3.992,0,0,1,15,21a4.262,4.262,0,0,1-2.867-1.062l-.006,0-.477-.795a8.845,8.845,0,0,1-.328-8.547L14.9,3.447a1,1,0,0,0-1.79-.894L9.533,9.7a10.835,10.835,0,0,0,.4,10.471l.56.933a8.931,8.931,0,0,1,.486,8.228,10.865,10.865,0,0,0,.215,9.3l.866,1.731A8.948,8.948,0,0,1,13,44.334V53a9.01,9.01,0,0,0,9,9H35a1,1,0,0,0,.938-1.346L30.417,45.668a9.273,9.273,0,0,1,.481-7.231C31.013,38.2,31.1,37.944,31.2,37.7ZM28.721,26.2l13.616-5.536.483,1.8a1,1,0,0,0,.466.607,1.021,1.021,0,0,0,.759.1l9.66-2.589a5.018,5.018,0,1,1-3.686,4.438,1,1,0,0,0-1.256-1.044L25.98,30.09Z"/><path d="M17.293,11.707l3,3a1,1,0,0,0,1.414,0l3-3a1,1,0,0,0,.285-.583L25.883,4h1.5l3.3,6.593a8.842,8.842,0,0,1-.326,8.543A3.957,3.957,0,0,1,27.939,20.9,4.514,4.514,0,0,1,27,21a3.992,3.992,0,0,1-3.764-2.367,1,1,0,0,0-1.86.734A6,6,0,0,0,27,23a6.547,6.547,0,0,0,1.353-.141,5.936,5.936,0,0,0,3.712-2.69,10.835,10.835,0,0,0,.4-10.471L28.9,2.553A1,1,0,0,0,28,2H25a1,1,0,0,0-.992.876l-.958,7.659L21,12.586l-2.05-2.051-.739-5.9a1,1,0,0,0-1.984.248l.781,6.244A1,1,0,0,0,17.293,11.707Z"/><path d="M7,3H3A1,1,0,0,0,3,5H4V24a1,1,0,0,0,2,0V5H7A1,1,0,0,0,7,3Z"/><path d="M7,60H6V40a1,1,0,0,0-2,0V60H3a1,1,0,0,0,0,2H7a1,1,0,0,0,0-2Z"/><path d="M7,27H3a1,1,0,0,0,0,2H7a1,1,0,0,0,0-2Z"/><path d="M6,31H4a2,2,0,0,0-2,2v2a2,2,0,0,0,2,2H6a2,2,0,0,0,2-2V33A2,2,0,0,0,6,31ZM4,35V33H6v2Z"/><path d="M55,53.928a1,1,0,0,0-1,1V60H40V40H51a1,1,0,0,0,0-2H39a1,1,0,0,0-1,1V61a1,1,0,0,0,1,1H55a1,1,0,0,0,1-1V54.928A1,1,0,0,0,55,53.928Z"/><path d="M61.9,36.224a3,3,0,0,0-5.5-.724l-1,1.732-7,12.124a1.039,1.039,0,0,0-.071.21c-.01.032-.035.057-.042.09l-1.1,5.4H46V52a1,1,0,0,0-2,0v3.053H43a1,1,0,0,0,0,2h5a1,1,0,0,0,.663-.252L53.4,52.6c.006-.005.011-.013.017-.019a.913.913,0,0,0,.065-.073.972.972,0,0,0,.1-.125.355.355,0,0,0,.023-.031l7-12.124,1-1.732A2.974,2.974,0,0,0,61.9,36.224Zm-3.156-.19a1,1,0,0,1,.758.1h0a1,1,0,0,1,.366,1.365l-.5.866-1.733-1,.5-.866A1,1,0,0,1,58.741,36.034ZM49.969,51.416l1.061.613-1.449,1.285Zm2.4-.926-.866-.5-.866-.5,6-10.391.866.5.866.5Z"/><path d="M45,49a1,1,0,0,0,1-1V45h1a1,1,0,0,0,0-2H43a1,1,0,0,0,0,2h1v3A1,1,0,0,0,45,49Z"/></g></g></svg>
