<?xml version="1.0" encoding="iso-8859-1"?>
<!-- Generator: Adobe Illustrator 19.0.0, SVG Export Plug-In . SVG Version: 6.00 Build 0)  -->
<svg version="1.1" id="Capa_1" xmlns="http://www.w3.org/2000/svg" xmlns:xlink="http://www.w3.org/1999/xlink" x="0px" y="0px"
	 viewBox="0 0 496 496" style="enable-background:new 0 0 496 496;" xml:space="preserve">
<g>
	<path style="fill:#FFA64D;" d="M368,104H8v48h360c13.256,0,24,10.744,24,24v-48C392,114.744,381.256,104,368,104z"/>
	<path style="fill:#FFA64D;" d="M136,296h352v-48H136c-13.256,0-24-10.744-24-24v48C112,285.256,122.744,296,136,296z"/>
</g>
<path style="fill:#333333;" d="M488,240h-24H338.36l8.352-32H368c17.648,0,32-14.352,32-32v-48c0-15-10.4-27.52-24.344-30.976
	l9.064-34.736L382.4,59.2c-1.032-1.384-25.088-32.504-86.4-35.04V0h-96v24.168c-61.312,2.528-85.368,33.656-86.4,35.04l-2.32,3.088
	l8.8,33.712H32H8H0v64h8h24h104.768l8.352,32H136c-17.648,0-32,14.352-32,32v48c0,17.648,14.352,32,32,32h4.664
	c-3.048,14.168-4.664,27.608-4.664,40v4.944l4.424,2.208c1.216,0.608,27.248,13.256,83.576,16.216V496h16V367.888
	c2.648,0.048,5.24,0.112,8,0.112c2.76,0,5.352-0.064,8-0.112V496h16V367.368c56.336-2.96,82.368-15.608,83.576-16.216l4.424-2.208
	V344c0-12.392-1.624-25.832-4.664-40H464h24h8v-64H488z M368,192h-17.12l8.352-32H368c8.816,0,16,7.176,16,16
	C384,184.816,376.816,192,368,192z M384,128v20.296c-4.712-2.736-10.184-4.296-16-4.296H59.552C62.304,139.272,64,133.856,64,128
	s-1.696-11.272-4.448-16H368C376.816,112,384,119.176,384,128z M128.816,66.128C136.016,58.912,159.488,40,208,40h8V16h64v24h8
	c48.552,0,72.032,18.944,79.184,26.128L359.384,96h-222.76L128.816,66.128z M16,144v-32h16c8.816,0,16,7.176,16,16
	c0,8.816-7.184,16-16,16H16z M136,208h13.296l8.352,32H136c-8.816,0-16-7.184-16-16C120,215.176,127.184,208,136,208z M120,272
	v-20.448c4.728,2.752,10.144,4.448,16,4.448h152v-16H174.184l-20.872-80h189.376l-20.872,80H304v16h132.448
	c-2.752,4.728-4.448,10.144-4.448,16s1.696,11.272,4.448,16H136C127.184,288,120,280.816,120,272z M343.896,338.688
	C332.952,342.736,301.992,352,248,352c-54.008,0-84.976-9.272-95.896-13.312c0.408-10.768,2.12-22.416,4.952-34.688h181.896
	C341.776,316.264,343.488,327.92,343.896,338.688z M464,288c-8.816,0-16-7.184-16-16c0-8.824,7.184-16,16-16h16v32H464z"/>
<g>
</g>
<g>
</g>
<g>
</g>
<g>
</g>
<g>
</g>
<g>
</g>
<g>
</g>
<g>
</g>
<g>
</g>
<g>
</g>
<g>
</g>
<g>
</g>
<g>
</g>
<g>
</g>
<g>
</g>
</svg>
